<?xml version="1.0" standalone="no"?><!DOCTYPE svg PUBLIC "-//W3C//DTD SVG 1.1//EN" "http://www.w3.org/Graphics/SVG/1.1/DTD/svg11.dtd"><svg class="icon" width="200px" height="200.00px" viewBox="0 0 1024 1024" version="1.1" xmlns="http://www.w3.org/2000/svg"><path d="M512.08 738.15L0.03 477.34 0 543.54l512.06 260.82 0.01 0.02 0.01-0.01 0.02 0.01v-0.02L1024 544.1l-0.09-66.17z" fill="#515151" /><path d="M1023.91 697.55L512.08 957.78 0.03 696.96 0 763.16l512.06 260.82 0.01 0.02 0.01-0.01 0.02 0.01v-0.02L1024 763.72zM1024 260.28L512.1 0.02V0l-0.01 0.01-0.02-0.01-0.01 0.02L0 260.84l0.01 34.26L0 329.35l512.06 260.82 0.01 0.02 0.01-0.01 0.01 0.01 0.01-0.02L1024 329.91l-0.05-34.82 0.05-34.81z m-61.76 34.81L512.08 523.96 62.75 295.09 512.08 66.22l450.16 228.87z" fill="#515151" /></svg>