<?xml version="1.0" standalone="no"?><!DOCTYPE svg PUBLIC "-//W3C//DTD SVG 1.1//EN" "http://www.w3.org/Graphics/SVG/1.1/DTD/svg11.dtd"><svg class="icon" width="200px" height="200.00px" viewBox="0 0 1024 1024" version="1.1" xmlns="http://www.w3.org/2000/svg"><path d="M839.84 655.69c-63.52 0-119.53 32.16-152.63 81.09L361.05 563.35c4.72-16.3 7.26-33.53 7.26-51.35s-2.54-35.05-7.26-51.35l326.16-173.42c33.1 48.93 89.11 81.09 152.63 81.09 101.71 0 184.16-82.45 184.16-184.16S941.55 0 839.84 0 655.69 82.45 655.69 184.16c0 17.13 2.35 33.7 6.72 49.43L335.67 407.32c-33.24-48.02-88.7-79.48-151.52-79.48C82.45 327.84 0 410.29 0 512s82.45 184.16 184.16 184.16c62.82 0 118.28-31.46 151.52-79.48l326.73 173.73a184.443 184.443 0 0 0-6.72 49.43c0 101.71 82.45 184.16 184.16 184.16S1024 941.55 1024 839.84s-82.45-184.15-184.16-184.15z m0-603.92c73.12 0 132.39 59.27 132.39 132.39s-59.27 132.39-132.39 132.39-132.39-59.27-132.39-132.39S766.73 51.77 839.84 51.77zM184.16 644.39c-73.12 0-132.39-59.27-132.39-132.39s59.27-132.39 132.39-132.39S316.55 438.88 316.55 512s-59.28 132.39-132.39 132.39z m655.68 327.84c-73.12 0-132.39-59.27-132.39-132.39s59.27-132.39 132.39-132.39 132.39 59.27 132.39 132.39-59.27 132.39-132.39 132.39z" fill="#515151" /></svg>