<?xml version="1.0" standalone="no"?><!DOCTYPE svg PUBLIC "-//W3C//DTD SVG 1.1//EN" "http://www.w3.org/Graphics/SVG/1.1/DTD/svg11.dtd"><svg class="icon" width="200px" height="200.00px" viewBox="0 0 1024 1024" version="1.1" xmlns="http://www.w3.org/2000/svg"><path d="M512 322c-104.93 0-190 85.07-190 190s85.07 190 190 190 190-85.07 190-190-85.07-190-190-190z m0 322.5c-73.18 0-132.5-59.32-132.5-132.5S438.82 379.5 512 379.5 644.5 438.82 644.5 512 585.18 644.5 512 644.5z" fill="#515151" /><path d="M1024 608.88V415.12H866.59a365.743 365.743 0 0 0-35.46-85.49l110.46-110.46-137-137L694.06 192.7a365.335 365.335 0 0 0-85.19-35.3V0H415.12v157.41a365.336 365.336 0 0 0-86.02 35.76L218.32 82.38l-137 137L192.4 330.46c-15 26.36-26.84 54.75-34.99 84.66H0v193.75h157.41c8.2 30.1 20.14 58.66 35.28 85.16L81.7 805.01l137 137 110.9-110.9a364.989 364.989 0 0 0 85.52 35.48V1024h193.75V866.59a365.405 365.405 0 0 0 84.94-35.15L804.2 941.82l137-137-110.21-110.21a365.411 365.411 0 0 0 35.6-85.73H1024zM856.79 805.79l-51.62 51.62-103.42-103.42c-43.25 33.96-95.83 56.55-153.25 63.35V965h-73V817.33c-57.65-6.82-110.41-29.57-153.75-63.75L217.73 857.6l-51.62-51.62 104.05-104.05c-34.04-43.28-56.69-95.93-63.49-153.44H59v-73h147.67c6.78-57.31 29.3-109.8 63.15-153L165.73 218.41l51.62-51.62 103.97 103.97c43.42-34.37 96.34-57.25 154.18-64.09V59h73v147.67c57.52 6.8 110.18 29.46 153.47 63.52L805.56 166.6l51.62 51.62-103.57 103.56c34.17 43.34 56.91 96.09 63.72 153.72H965v73H817.33c-6.83 57.73-29.64 110.56-63.9 153.94l103.36 103.35z" fill="#515151" /></svg>